<mxfile host="app.diagrams.net" agent="Mozilla/5.0 (Windows NT 10.0; Win64; x64) AppleWebKit/537.36 (KHTML, like Gecko) Chrome/137.0.0.0 Safari/537.36 Edg/137.0.0.0" version="27.1.6">
  <diagram name="Página-1" id="NQ3BYdyoQGX2js3DKj3Q">
    <mxGraphModel dx="1034" dy="570" grid="1" gridSize="10" guides="1" tooltips="1" connect="1" arrows="1" fold="1" page="1" pageScale="1" pageWidth="850" pageHeight="1100" math="0" shadow="0">
      <root>
        <mxCell id="0" />
        <mxCell id="1" parent="0" />
        <mxCell id="ZuHbYVunxRSJGYDRrWry-3" value="" style="edgeStyle=orthogonalEdgeStyle;rounded=0;orthogonalLoop=1;jettySize=auto;html=1;" edge="1" parent="1" source="ZuHbYVunxRSJGYDRrWry-1" target="ZuHbYVunxRSJGYDRrWry-2">
          <mxGeometry relative="1" as="geometry" />
        </mxCell>
        <mxCell id="ZuHbYVunxRSJGYDRrWry-1" value="Inicio" style="strokeWidth=2;html=1;shape=mxgraph.flowchart.start_1;whiteSpace=wrap;" vertex="1" parent="1">
          <mxGeometry x="290" y="30" width="200" height="60" as="geometry" />
        </mxCell>
        <mxCell id="ZuHbYVunxRSJGYDRrWry-11" value="" style="edgeStyle=orthogonalEdgeStyle;rounded=0;orthogonalLoop=1;jettySize=auto;html=1;" edge="1" parent="1" source="ZuHbYVunxRSJGYDRrWry-2">
          <mxGeometry relative="1" as="geometry">
            <mxPoint x="390" y="220" as="targetPoint" />
          </mxGeometry>
        </mxCell>
        <mxCell id="ZuHbYVunxRSJGYDRrWry-2" value="Categoría&lt;div&gt;Pago_Base = 1550&lt;/div&gt;&lt;pre&gt;&lt;div&gt;&lt;/div&gt;&lt;/pre&gt;" style="shape=parallelogram;html=1;strokeWidth=2;perimeter=parallelogramPerimeter;whiteSpace=wrap;rounded=1;arcSize=0;size=0.11249999999999999;" vertex="1" parent="1">
          <mxGeometry x="290" y="130" width="200" height="60" as="geometry" />
        </mxCell>
        <mxCell id="ZuHbYVunxRSJGYDRrWry-27" value="" style="edgeStyle=orthogonalEdgeStyle;rounded=0;orthogonalLoop=1;jettySize=auto;html=1;" edge="1" parent="1" source="ZuHbYVunxRSJGYDRrWry-30">
          <mxGeometry relative="1" as="geometry">
            <mxPoint x="140" y="360" as="targetPoint" />
          </mxGeometry>
        </mxCell>
        <mxCell id="ZuHbYVunxRSJGYDRrWry-40" value="A" style="edgeLabel;html=1;align=center;verticalAlign=middle;resizable=0;points=[];" vertex="1" connectable="0" parent="ZuHbYVunxRSJGYDRrWry-27">
          <mxGeometry x="0.489" y="2" relative="1" as="geometry">
            <mxPoint as="offset" />
          </mxGeometry>
        </mxCell>
        <mxCell id="ZuHbYVunxRSJGYDRrWry-28" value="" style="edgeStyle=orthogonalEdgeStyle;rounded=0;orthogonalLoop=1;jettySize=auto;html=1;" edge="1" parent="1" source="ZuHbYVunxRSJGYDRrWry-30">
          <mxGeometry relative="1" as="geometry">
            <mxPoint x="630" y="360" as="targetPoint" />
          </mxGeometry>
        </mxCell>
        <mxCell id="ZuHbYVunxRSJGYDRrWry-42" value="C" style="edgeLabel;html=1;align=center;verticalAlign=middle;resizable=0;points=[];" vertex="1" connectable="0" parent="ZuHbYVunxRSJGYDRrWry-28">
          <mxGeometry x="0.3752" y="1" relative="1" as="geometry">
            <mxPoint as="offset" />
          </mxGeometry>
        </mxCell>
        <mxCell id="ZuHbYVunxRSJGYDRrWry-39" value="" style="edgeStyle=orthogonalEdgeStyle;rounded=0;orthogonalLoop=1;jettySize=auto;html=1;" edge="1" parent="1" source="ZuHbYVunxRSJGYDRrWry-30">
          <mxGeometry relative="1" as="geometry">
            <mxPoint x="390" y="405" as="targetPoint" />
          </mxGeometry>
        </mxCell>
        <mxCell id="ZuHbYVunxRSJGYDRrWry-41" value="B" style="edgeLabel;html=1;align=center;verticalAlign=middle;resizable=0;points=[];" vertex="1" connectable="0" parent="ZuHbYVunxRSJGYDRrWry-39">
          <mxGeometry x="-0.4978" relative="1" as="geometry">
            <mxPoint as="offset" />
          </mxGeometry>
        </mxCell>
        <mxCell id="ZuHbYVunxRSJGYDRrWry-30" value="" style="verticalLabelPosition=bottom;verticalAlign=top;html=1;shape=hexagon;perimeter=hexagonPerimeter2;arcSize=6;size=0.17687074829931973;strokeWidth=2;container=1;" vertex="1" parent="1">
          <mxGeometry x="243" y="220" width="294" height="70" as="geometry">
            <mxRectangle x="243" y="220" width="50" height="40" as="alternateBounds" />
          </mxGeometry>
        </mxCell>
        <mxCell id="ZuHbYVunxRSJGYDRrWry-32" value="" style="shape=table;startSize=0;container=1;collapsible=1;childLayout=tableLayout;fixedRows=1;rowLines=0;fontStyle=0;align=center;resizeLast=1;strokeColor=none;fillColor=none;collapsible=0;whiteSpace=wrap;html=1;" vertex="1" parent="ZuHbYVunxRSJGYDRrWry-30">
          <mxGeometry x="37" width="193" height="70" as="geometry" />
        </mxCell>
        <mxCell id="ZuHbYVunxRSJGYDRrWry-33" value="" style="shape=tableRow;horizontal=0;startSize=0;swimlaneHead=0;swimlaneBody=0;fillColor=none;collapsible=0;dropTarget=0;points=[[0,0.5],[1,0.5]];portConstraint=eastwest;top=0;left=0;right=0;bottom=0;" vertex="1" parent="ZuHbYVunxRSJGYDRrWry-32">
          <mxGeometry width="193" height="70" as="geometry" />
        </mxCell>
        <mxCell id="ZuHbYVunxRSJGYDRrWry-34" value="" style="shape=partialRectangle;connectable=0;fillColor=none;top=0;left=0;bottom=0;right=0;editable=1;overflow=hidden;" vertex="1" parent="ZuHbYVunxRSJGYDRrWry-33">
          <mxGeometry width="30" height="70" as="geometry">
            <mxRectangle width="30" height="70" as="alternateBounds" />
          </mxGeometry>
        </mxCell>
        <mxCell id="ZuHbYVunxRSJGYDRrWry-35" value="Categoría de los empleados" style="shape=partialRectangle;connectable=0;fillColor=none;top=0;left=0;bottom=0;right=0;align=center;spacingLeft=6;overflow=hidden;" vertex="1" parent="ZuHbYVunxRSJGYDRrWry-33">
          <mxGeometry x="30" width="163" height="70" as="geometry">
            <mxRectangle width="163" height="70" as="alternateBounds" />
          </mxGeometry>
        </mxCell>
        <mxCell id="ZuHbYVunxRSJGYDRrWry-49" value="" style="edgeStyle=orthogonalEdgeStyle;rounded=0;orthogonalLoop=1;jettySize=auto;html=1;" edge="1" parent="1" source="ZuHbYVunxRSJGYDRrWry-43" target="ZuHbYVunxRSJGYDRrWry-46">
          <mxGeometry relative="1" as="geometry" />
        </mxCell>
        <mxCell id="ZuHbYVunxRSJGYDRrWry-43" value="&lt;div&gt;nuevo_sueldo = pago_base * 1.05&lt;/div&gt;&lt;div&gt;&lt;br&gt;&lt;/div&gt;" style="rounded=1;whiteSpace=wrap;html=1;absoluteArcSize=1;arcSize=0;strokeWidth=2;" vertex="1" parent="1">
          <mxGeometry x="43" y="360" width="200" height="60" as="geometry" />
        </mxCell>
        <mxCell id="ZuHbYVunxRSJGYDRrWry-50" value="" style="edgeStyle=orthogonalEdgeStyle;rounded=0;orthogonalLoop=1;jettySize=auto;html=1;" edge="1" parent="1" source="ZuHbYVunxRSJGYDRrWry-44" target="ZuHbYVunxRSJGYDRrWry-47">
          <mxGeometry relative="1" as="geometry" />
        </mxCell>
        <mxCell id="ZuHbYVunxRSJGYDRrWry-44" value="nuevo_sueldo = pago_base * 1.10" style="rounded=1;whiteSpace=wrap;html=1;absoluteArcSize=1;arcSize=0;strokeWidth=2;" vertex="1" parent="1">
          <mxGeometry x="290" y="410" width="200" height="60" as="geometry" />
        </mxCell>
        <mxCell id="ZuHbYVunxRSJGYDRrWry-51" value="" style="edgeStyle=orthogonalEdgeStyle;rounded=0;orthogonalLoop=1;jettySize=auto;html=1;" edge="1" parent="1" source="ZuHbYVunxRSJGYDRrWry-45" target="ZuHbYVunxRSJGYDRrWry-48">
          <mxGeometry relative="1" as="geometry" />
        </mxCell>
        <mxCell id="ZuHbYVunxRSJGYDRrWry-45" value="nuevo_sueldo = pago_base * 1.15" style="rounded=1;whiteSpace=wrap;html=1;absoluteArcSize=1;arcSize=0;strokeWidth=2;" vertex="1" parent="1">
          <mxGeometry x="520" y="360" width="200" height="60" as="geometry" />
        </mxCell>
        <mxCell id="ZuHbYVunxRSJGYDRrWry-46" value="" style="strokeWidth=2;html=1;shape=mxgraph.flowchart.document2;whiteSpace=wrap;size=0.25;" vertex="1" parent="1">
          <mxGeometry x="43" y="460" width="200" height="70" as="geometry" />
        </mxCell>
        <mxCell id="ZuHbYVunxRSJGYDRrWry-47" value="" style="strokeWidth=2;html=1;shape=mxgraph.flowchart.document2;whiteSpace=wrap;size=0.25;" vertex="1" parent="1">
          <mxGeometry x="290" y="500" width="200" height="70" as="geometry" />
        </mxCell>
        <mxCell id="ZuHbYVunxRSJGYDRrWry-48" value="" style="strokeWidth=2;html=1;shape=mxgraph.flowchart.document2;whiteSpace=wrap;size=0.25;" vertex="1" parent="1">
          <mxGeometry x="520" y="460" width="200" height="70" as="geometry" />
        </mxCell>
      </root>
    </mxGraphModel>
  </diagram>
</mxfile>
